<svg xmlns="http://www.w3.org/2000/svg" width="1280" height="400" viewBox="0 0 1280 400" font-family="-apple-system,BlinkMacSystemFont,'Segoe UI',Roboto,sans-serif">
<defs><radialGradient id="bg" cx="30%" cy="38%" r="85%"><stop offset="0%" stop-color="#26243300"/><stop offset="0%" stop-color="#262433"/><stop offset="55%" stop-color="#1b1b24"/><stop offset="100%" stop-color="#141419"/></radialGradient><linearGradient id="wm" x1="0" y1="0" x2="1" y2="1"><stop offset="0%" stop-color="#b9b7fb"/><stop offset="50%" stop-color="#8f8cf5"/><stop offset="100%" stop-color="#6f8cf2"/></linearGradient><radialGradient id="halo" cx="50%" cy="50%" r="50%"><stop offset="0%" stop-color="#8f8cf5" stop-opacity="0.55"/><stop offset="100%" stop-color="#8f8cf5" stop-opacity="0"/></radialGradient><filter id="b2"><feGaussianBlur stdDeviation="2.2"/></filter></defs>
<rect width="1280" height="400" rx="16" fill="url(#bg)"/>
<rect x="0.5" y="0.5" width="1279" height="399" rx="16" fill="none" stroke="#343440"/>
<line x1="583" y1="220" x2="649" y2="229" stroke="#8f8cf5" stroke-width="1" opacity="0.059"/>
<line x1="583" y1="220" x2="569" y2="312" stroke="#8f8cf5" stroke-width="1" opacity="0.035"/>
<line x1="583" y1="220" x2="663" y2="246" stroke="#8f8cf5" stroke-width="1" opacity="0.043"/>
<line x1="583" y1="220" x2="640" y2="253" stroke="#8f8cf5" stroke-width="1" opacity="0.060"/>
<line x1="583" y1="220" x2="589" y2="127" stroke="#8f8cf5" stroke-width="1" opacity="0.036"/>
<line x1="1149" y1="189" x2="1048" y2="268" stroke="#8f8cf5" stroke-width="1" opacity="0.003"/>
<line x1="1149" y1="189" x2="1056" y2="163" stroke="#8f8cf5" stroke-width="1" opacity="0.032"/>
<line x1="1149" y1="189" x2="1190" y2="314" stroke="#8f8cf5" stroke-width="1" opacity="0.000"/>
<line x1="1149" y1="189" x2="1132" y2="190" stroke="#8f8cf5" stroke-width="1" opacity="0.105"/>
<line x1="1149" y1="189" x2="1216" y2="166" stroke="#8f8cf5" stroke-width="1" opacity="0.055"/>
<line x1="1149" y1="189" x2="1197" y2="285" stroke="#8f8cf5" stroke-width="1" opacity="0.023"/>
<line x1="1149" y1="189" x2="1205" y2="300" stroke="#8f8cf5" stroke-width="1" opacity="0.007"/>
<line x1="1149" y1="189" x2="1065" y2="247" stroke="#8f8cf5" stroke-width="1" opacity="0.027"/>
<line x1="649" y1="229" x2="569" y2="312" stroke="#8f8cf5" stroke-width="1" opacity="0.014"/>
<line x1="649" y1="229" x2="663" y2="246" stroke="#8f8cf5" stroke-width="1" opacity="0.100"/>
<line x1="649" y1="229" x2="640" y2="253" stroke="#8f8cf5" stroke-width="1" opacity="0.096"/>
<line x1="649" y1="229" x2="589" y2="127" stroke="#8f8cf5" stroke-width="1" opacity="0.013"/>
<line x1="649" y1="229" x2="711" y2="183" stroke="#8f8cf5" stroke-width="1" opacity="0.050"/>
<line x1="262" y1="204" x2="153" y2="136" stroke="#8f8cf5" stroke-width="1" opacity="0.003"/>
<line x1="262" y1="204" x2="268" y2="115" stroke="#8f8cf5" stroke-width="1" opacity="0.039"/>
<line x1="262" y1="204" x2="145" y2="145" stroke="#8f8cf5" stroke-width="1" opacity="0.001"/>
<line x1="262" y1="204" x2="182" y2="117" stroke="#8f8cf5" stroke-width="1" opacity="0.012"/>
<line x1="262" y1="204" x2="269" y2="276" stroke="#8f8cf5" stroke-width="1" opacity="0.054"/>
<line x1="262" y1="204" x2="197" y2="247" stroke="#8f8cf5" stroke-width="1" opacity="0.049"/>
<line x1="262" y1="204" x2="180" y2="174" stroke="#8f8cf5" stroke-width="1" opacity="0.041"/>
<line x1="262" y1="204" x2="295" y2="124" stroke="#8f8cf5" stroke-width="1" opacity="0.042"/>
<line x1="262" y1="204" x2="293" y2="165" stroke="#8f8cf5" stroke-width="1" opacity="0.075"/>
<line x1="262" y1="204" x2="296" y2="121" stroke="#8f8cf5" stroke-width="1" opacity="0.038"/>
<line x1="796" y1="296" x2="825" y2="238" stroke="#8f8cf5" stroke-width="1" opacity="0.061"/>
<line x1="153" y1="136" x2="229" y2="41" stroke="#8f8cf5" stroke-width="1" opacity="0.010"/>
<line x1="153" y1="136" x2="268" y2="115" stroke="#8f8cf5" stroke-width="1" opacity="0.014"/>
<line x1="153" y1="136" x2="76" y2="188" stroke="#8f8cf5" stroke-width="1" opacity="0.035"/>
<line x1="153" y1="136" x2="41" y2="105" stroke="#8f8cf5" stroke-width="1" opacity="0.014"/>
<line x1="153" y1="136" x2="128" y2="242" stroke="#8f8cf5" stroke-width="1" opacity="0.020"/>
<line x1="153" y1="136" x2="145" y2="145" stroke="#8f8cf5" stroke-width="1" opacity="0.108"/>
<line x1="153" y1="136" x2="182" y2="117" stroke="#8f8cf5" stroke-width="1" opacity="0.089"/>
<line x1="153" y1="136" x2="161" y2="56" stroke="#8f8cf5" stroke-width="1" opacity="0.047"/>
<line x1="153" y1="136" x2="197" y2="247" stroke="#8f8cf5" stroke-width="1" opacity="0.011"/>
<line x1="153" y1="136" x2="180" y2="174" stroke="#8f8cf5" stroke-width="1" opacity="0.077"/>
<line x1="149" y1="302" x2="128" y2="242" stroke="#8f8cf5" stroke-width="1" opacity="0.063"/>
<line x1="149" y1="302" x2="269" y2="276" stroke="#8f8cf5" stroke-width="1" opacity="0.008"/>
<line x1="149" y1="302" x2="197" y2="247" stroke="#8f8cf5" stroke-width="1" opacity="0.054"/>
<line x1="149" y1="302" x2="180" y2="174" stroke="#8f8cf5" stroke-width="1" opacity="0.001"/>
<line x1="149" y1="302" x2="160" y2="360" stroke="#8f8cf5" stroke-width="1" opacity="0.065"/>
<line x1="872" y1="50" x2="974" y2="124" stroke="#8f8cf5" stroke-width="1" opacity="0.005"/>
<line x1="1219" y1="352" x2="1237" y2="363" stroke="#8f8cf5" stroke-width="1" opacity="0.101"/>
<line x1="1219" y1="352" x2="1190" y2="314" stroke="#8f8cf5" stroke-width="1" opacity="0.076"/>
<line x1="1219" y1="352" x2="1197" y2="285" stroke="#8f8cf5" stroke-width="1" opacity="0.055"/>
<line x1="1219" y1="352" x2="1205" y2="300" stroke="#8f8cf5" stroke-width="1" opacity="0.070"/>
<line x1="825" y1="238" x2="711" y2="183" stroke="#8f8cf5" stroke-width="1" opacity="0.005"/>
<line x1="229" y1="41" x2="268" y2="115" stroke="#8f8cf5" stroke-width="1" opacity="0.043"/>
<line x1="229" y1="41" x2="182" y2="117" stroke="#8f8cf5" stroke-width="1" opacity="0.039"/>
<line x1="229" y1="41" x2="161" y2="56" stroke="#8f8cf5" stroke-width="1" opacity="0.057"/>
<line x1="229" y1="41" x2="295" y2="124" stroke="#8f8cf5" stroke-width="1" opacity="0.023"/>
<line x1="229" y1="41" x2="296" y2="121" stroke="#8f8cf5" stroke-width="1" opacity="0.025"/>
<line x1="674" y1="56" x2="589" y2="127" stroke="#8f8cf5" stroke-width="1" opacity="0.019"/>
<line x1="268" y1="115" x2="387" y2="59" stroke="#8f8cf5" stroke-width="1" opacity="0.001"/>
<line x1="268" y1="115" x2="145" y2="145" stroke="#8f8cf5" stroke-width="1" opacity="0.004"/>
<line x1="268" y1="115" x2="182" y2="117" stroke="#8f8cf5" stroke-width="1" opacity="0.041"/>
<line x1="268" y1="115" x2="161" y2="56" stroke="#8f8cf5" stroke-width="1" opacity="0.009"/>
<line x1="268" y1="115" x2="180" y2="174" stroke="#8f8cf5" stroke-width="1" opacity="0.024"/>
<line x1="268" y1="115" x2="295" y2="124" stroke="#8f8cf5" stroke-width="1" opacity="0.094"/>
<line x1="268" y1="115" x2="293" y2="165" stroke="#8f8cf5" stroke-width="1" opacity="0.069"/>
<line x1="268" y1="115" x2="296" y2="121" stroke="#8f8cf5" stroke-width="1" opacity="0.094"/>
<line x1="76" y1="188" x2="41" y2="105" stroke="#8f8cf5" stroke-width="1" opacity="0.038"/>
<line x1="76" y1="188" x2="128" y2="242" stroke="#8f8cf5" stroke-width="1" opacity="0.052"/>
<line x1="76" y1="188" x2="145" y2="145" stroke="#8f8cf5" stroke-width="1" opacity="0.046"/>
<line x1="76" y1="188" x2="182" y2="117" stroke="#8f8cf5" stroke-width="1" opacity="0.004"/>
<line x1="76" y1="188" x2="180" y2="174" stroke="#8f8cf5" stroke-width="1" opacity="0.025"/>
<line x1="569" y1="312" x2="663" y2="246" stroke="#8f8cf5" stroke-width="1" opacity="0.015"/>
<line x1="569" y1="312" x2="640" y2="253" stroke="#8f8cf5" stroke-width="1" opacity="0.036"/>
<line x1="663" y1="246" x2="640" y2="253" stroke="#8f8cf5" stroke-width="1" opacity="0.098"/>
<line x1="663" y1="246" x2="711" y2="183" stroke="#8f8cf5" stroke-width="1" opacity="0.048"/>
<line x1="640" y1="253" x2="711" y2="183" stroke="#8f8cf5" stroke-width="1" opacity="0.029"/>
<line x1="1237" y1="363" x2="1190" y2="314" stroke="#8f8cf5" stroke-width="1" opacity="0.058"/>
<line x1="1237" y1="363" x2="1197" y2="285" stroke="#8f8cf5" stroke-width="1" opacity="0.040"/>
<line x1="1237" y1="363" x2="1205" y2="300" stroke="#8f8cf5" stroke-width="1" opacity="0.056"/>
<line x1="1048" y1="268" x2="1056" y2="163" stroke="#8f8cf5" stroke-width="1" opacity="0.024"/>
<line x1="1048" y1="268" x2="1132" y2="190" stroke="#8f8cf5" stroke-width="1" opacity="0.016"/>
<line x1="1048" y1="268" x2="1065" y2="247" stroke="#8f8cf5" stroke-width="1" opacity="0.095"/>
<line x1="418" y1="111" x2="387" y2="59" stroke="#8f8cf5" stroke-width="1" opacity="0.065"/>
<line x1="418" y1="111" x2="295" y2="124" stroke="#8f8cf5" stroke-width="1" opacity="0.008"/>
<line x1="418" y1="111" x2="296" y2="121" stroke="#8f8cf5" stroke-width="1" opacity="0.008"/>
<line x1="387" y1="59" x2="295" y2="124" stroke="#8f8cf5" stroke-width="1" opacity="0.018"/>
<line x1="387" y1="59" x2="296" y2="121" stroke="#8f8cf5" stroke-width="1" opacity="0.020"/>
<line x1="960" y1="167" x2="1056" y2="163" stroke="#8f8cf5" stroke-width="1" opacity="0.032"/>
<line x1="960" y1="167" x2="974" y2="124" stroke="#8f8cf5" stroke-width="1" opacity="0.079"/>
<line x1="960" y1="167" x2="996" y2="94" stroke="#8f8cf5" stroke-width="1" opacity="0.046"/>
<line x1="1056" y1="163" x2="1132" y2="190" stroke="#8f8cf5" stroke-width="1" opacity="0.046"/>
<line x1="1056" y1="163" x2="974" y2="124" stroke="#8f8cf5" stroke-width="1" opacity="0.038"/>
<line x1="1056" y1="163" x2="996" y2="94" stroke="#8f8cf5" stroke-width="1" opacity="0.038"/>
<line x1="1056" y1="163" x2="1065" y2="247" stroke="#8f8cf5" stroke-width="1" opacity="0.043"/>
<line x1="1190" y1="314" x2="1197" y2="285" stroke="#8f8cf5" stroke-width="1" opacity="0.093"/>
<line x1="1190" y1="314" x2="1205" y2="300" stroke="#8f8cf5" stroke-width="1" opacity="0.101"/>
<line x1="41" y1="105" x2="145" y2="145" stroke="#8f8cf5" stroke-width="1" opacity="0.019"/>
<line x1="41" y1="105" x2="161" y2="56" stroke="#8f8cf5" stroke-width="1" opacity="0.002"/>
<line x1="1132" y1="190" x2="1216" y2="166" stroke="#8f8cf5" stroke-width="1" opacity="0.041"/>
<line x1="1132" y1="190" x2="1197" y2="285" stroke="#8f8cf5" stroke-width="1" opacity="0.016"/>
<line x1="1132" y1="190" x2="1205" y2="300" stroke="#8f8cf5" stroke-width="1" opacity="0.001"/>
<line x1="1132" y1="190" x2="1065" y2="247" stroke="#8f8cf5" stroke-width="1" opacity="0.040"/>
<line x1="1216" y1="166" x2="1197" y2="285" stroke="#8f8cf5" stroke-width="1" opacity="0.011"/>
<line x1="128" y1="242" x2="145" y2="145" stroke="#8f8cf5" stroke-width="1" opacity="0.030"/>
<line x1="128" y1="242" x2="197" y2="247" stroke="#8f8cf5" stroke-width="1" opacity="0.057"/>
<line x1="128" y1="242" x2="180" y2="174" stroke="#8f8cf5" stroke-width="1" opacity="0.042"/>
<line x1="128" y1="242" x2="160" y2="360" stroke="#8f8cf5" stroke-width="1" opacity="0.009"/>
<line x1="974" y1="124" x2="996" y2="94" stroke="#8f8cf5" stroke-width="1" opacity="0.086"/>
<line x1="145" y1="145" x2="182" y2="117" stroke="#8f8cf5" stroke-width="1" opacity="0.078"/>
<line x1="145" y1="145" x2="161" y2="56" stroke="#8f8cf5" stroke-width="1" opacity="0.037"/>
<line x1="145" y1="145" x2="197" y2="247" stroke="#8f8cf5" stroke-width="1" opacity="0.016"/>
<line x1="145" y1="145" x2="180" y2="174" stroke="#8f8cf5" stroke-width="1" opacity="0.079"/>
<line x1="1197" y1="285" x2="1205" y2="300" stroke="#8f8cf5" stroke-width="1" opacity="0.105"/>
<line x1="182" y1="117" x2="161" y2="56" stroke="#8f8cf5" stroke-width="1" opacity="0.061"/>
<line x1="182" y1="117" x2="197" y2="247" stroke="#8f8cf5" stroke-width="1" opacity="0.001"/>
<line x1="182" y1="117" x2="180" y2="174" stroke="#8f8cf5" stroke-width="1" opacity="0.068"/>
<line x1="182" y1="117" x2="295" y2="124" stroke="#8f8cf5" stroke-width="1" opacity="0.016"/>
<line x1="182" y1="117" x2="293" y2="165" stroke="#8f8cf5" stroke-width="1" opacity="0.010"/>
<line x1="182" y1="117" x2="296" y2="121" stroke="#8f8cf5" stroke-width="1" opacity="0.016"/>
<line x1="161" y1="56" x2="180" y2="174" stroke="#8f8cf5" stroke-width="1" opacity="0.011"/>
<line x1="269" y1="276" x2="197" y2="247" stroke="#8f8cf5" stroke-width="1" opacity="0.050"/>
<line x1="269" y1="276" x2="293" y2="165" stroke="#8f8cf5" stroke-width="1" opacity="0.017"/>
<line x1="197" y1="247" x2="180" y2="174" stroke="#8f8cf5" stroke-width="1" opacity="0.052"/>
<line x1="197" y1="247" x2="293" y2="165" stroke="#8f8cf5" stroke-width="1" opacity="0.006"/>
<line x1="197" y1="247" x2="160" y2="360" stroke="#8f8cf5" stroke-width="1" opacity="0.012"/>
<line x1="180" y1="174" x2="295" y2="124" stroke="#8f8cf5" stroke-width="1" opacity="0.006"/>
<line x1="180" y1="174" x2="293" y2="165" stroke="#8f8cf5" stroke-width="1" opacity="0.017"/>
<line x1="180" y1="174" x2="296" y2="121" stroke="#8f8cf5" stroke-width="1" opacity="0.004"/>
<line x1="295" y1="124" x2="293" y2="165" stroke="#8f8cf5" stroke-width="1" opacity="0.083"/>
<line x1="295" y1="124" x2="296" y2="121" stroke="#8f8cf5" stroke-width="1" opacity="0.117"/>
<line x1="293" y1="165" x2="296" y2="121" stroke="#8f8cf5" stroke-width="1" opacity="0.079"/>
<circle cx="583" cy="220" r="3.6" fill="#8f8cf5" opacity="0.5"/>
<circle cx="1149" cy="189" r="2.5" fill="#4ea1ff" opacity="0.5"/>
<circle cx="649" cy="229" r="2.4" fill="#3fcbb0" opacity="0.5"/>
<circle cx="262" cy="204" r="1.8" fill="#e8bf69" opacity="0.5"/>
<circle cx="796" cy="296" r="1.8" fill="#8f8cf5" opacity="0.5"/>
<circle cx="153" cy="136" r="3.1" fill="#4ea1ff" opacity="0.5"/>
<circle cx="149" cy="302" r="2.2" fill="#3fcbb0" opacity="0.5"/>
<circle cx="872" cy="50" r="3.2" fill="#e8bf69" opacity="0.5"/>
<circle cx="1219" cy="352" r="2.6" fill="#8f8cf5" opacity="0.5"/>
<circle cx="825" cy="238" r="2.8" fill="#4ea1ff" opacity="0.5"/>
<circle cx="229" cy="41" r="4.1" fill="#3fcbb0" opacity="0.5"/>
<circle cx="674" cy="56" r="2.9" fill="#e8bf69" opacity="0.5"/>
<circle cx="268" cy="115" r="3.1" fill="#8f8cf5" opacity="0.5"/>
<circle cx="76" cy="188" r="3.9" fill="#4ea1ff" opacity="0.5"/>
<circle cx="569" cy="312" r="2.1" fill="#3fcbb0" opacity="0.5"/>
<circle cx="663" cy="246" r="2.0" fill="#e8bf69" opacity="0.5"/>
<circle cx="640" cy="253" r="4.0" fill="#8f8cf5" opacity="0.5"/>
<circle cx="589" cy="127" r="3.7" fill="#4ea1ff" opacity="0.5"/>
<circle cx="1237" cy="363" r="2.2" fill="#3fcbb0" opacity="0.5"/>
<circle cx="1048" cy="268" r="2.1" fill="#e8bf69" opacity="0.5"/>
<circle cx="418" cy="111" r="3.5" fill="#8f8cf5" opacity="0.5"/>
<circle cx="387" cy="59" r="4.0" fill="#4ea1ff" opacity="0.5"/>
<circle cx="960" cy="167" r="2.1" fill="#3fcbb0" opacity="0.5"/>
<circle cx="1056" cy="163" r="4.1" fill="#e8bf69" opacity="0.5"/>
<circle cx="1190" cy="314" r="3.9" fill="#8f8cf5" opacity="0.5"/>
<circle cx="41" cy="105" r="3.2" fill="#4ea1ff" opacity="0.5"/>
<circle cx="1132" cy="190" r="2.7" fill="#3fcbb0" opacity="0.5"/>
<circle cx="1216" cy="166" r="1.9" fill="#e8bf69" opacity="0.5"/>
<circle cx="128" cy="242" r="1.7" fill="#8f8cf5" opacity="0.5"/>
<circle cx="974" cy="124" r="4.1" fill="#4ea1ff" opacity="0.5"/>
<circle cx="145" cy="145" r="2.2" fill="#3fcbb0" opacity="0.5"/>
<circle cx="1197" cy="285" r="3.4" fill="#e8bf69" opacity="0.5"/>
<circle cx="182" cy="117" r="2.3" fill="#8f8cf5" opacity="0.5"/>
<circle cx="161" cy="56" r="3.7" fill="#4ea1ff" opacity="0.5"/>
<circle cx="996" cy="94" r="3.2" fill="#3fcbb0" opacity="0.5"/>
<circle cx="711" cy="183" r="2.4" fill="#e8bf69" opacity="0.5"/>
<circle cx="269" cy="276" r="2.1" fill="#8f8cf5" opacity="0.5"/>
<circle cx="197" cy="247" r="3.5" fill="#4ea1ff" opacity="0.5"/>
<circle cx="180" cy="174" r="1.8" fill="#3fcbb0" opacity="0.5"/>
<circle cx="295" cy="124" r="2.2" fill="#e8bf69" opacity="0.5"/>
<circle cx="1205" cy="300" r="3.1" fill="#8f8cf5" opacity="0.5"/>
<circle cx="405" cy="326" r="3.8" fill="#4ea1ff" opacity="0.5"/>
<circle cx="293" cy="165" r="3.2" fill="#3fcbb0" opacity="0.5"/>
<circle cx="1065" cy="247" r="2.3" fill="#e8bf69" opacity="0.5"/>
<circle cx="160" cy="360" r="4.0" fill="#8f8cf5" opacity="0.5"/>
<circle cx="296" cy="121" r="2.1" fill="#4ea1ff" opacity="0.5"/>
<circle cx="150" cy="196" r="74" fill="url(#halo)"/>
<circle cx="150" cy="196" r="40" fill="none" stroke="#8f8cf5" stroke-width="3"/>
<ellipse cx="150" cy="196" rx="40" ry="15" fill="none" stroke="#4ea1ff" stroke-width="2.4" opacity="0.85" transform="rotate(-28 150 196)"/>
<ellipse cx="150" cy="196" rx="40" ry="15" fill="none" stroke="#3fcbb0" stroke-width="2.4" opacity="0.7" transform="rotate(32 150 196)"/>
<circle cx="150" cy="196" r="11" fill="#ffffff"/>
<circle cx="150" cy="196" r="11" fill="#8f8cf5" opacity="0.35"/>
<circle cx="185" cy="196" r="4.5" fill="#4ea1ff"/>
<circle cx="115" cy="218" r="4" fill="#e8bf69"/>
<circle cx="180" cy="168" r="3.5" fill="#3fcbb0"/>
<text x="252" y="222" fill="url(#wm)" font-size="118" font-weight="800" letter-spacing="2">AURA</text>
<text x="258" y="262" fill="#a7a7b4" font-size="30" font-weight="600" letter-spacing="13">DESKTOP</text>
<text x="256" y="312" fill="#ececf1" font-size="21" font-weight="500">An AI-native, local-first Markdown second brain for macOS.</text>
<text x="256" y="342" fill="#a7a7b4" font-size="15.5" font-weight="400">Claude · Antigravity · Codex — orchestrated by the <tspan fill="#8f8cf5" font-weight="600">aura</tspan> CLI. Your notes never leave the device.</text>
</svg>