<svg xmlns="http://www.w3.org/2000/svg" width="1200" height="780" viewBox="0 0 1200 780" font-family="-apple-system,BlinkMacSystemFont,'Segoe UI',Roboto,sans-serif">
<defs><radialGradient id="bgGlow" cx="42%" cy="46%" r="62%"><stop offset="0%" stop-color="#23222e"/><stop offset="100%" stop-color="#17171c"/></radialGradient><filter id="soft" x="-60%" y="-60%" width="220%" height="220%"><feGaussianBlur stdDeviation="6"/></filter></defs>
<rect x="0" y="0" width="1200" height="780" rx="14" fill="url(#bgGlow)"/>
<rect x="0.5" y="0.5" width="1199" height="779" rx="14" fill="none" stroke="#343440"/>
<text x="40" y="52" fill="#a7a7b4" font-size="12" font-weight="700" letter-spacing="2">GRAPH</text>
<text x="40" y="84" fill="#ececf1" font-size="26" font-weight="700">Knowledge Graph</text>
<rect x="852" y="48" width="190" height="30" rx="8" fill="#202027" stroke="#343440"/>
<text x="947" y="68" fill="#a7a7b4" font-size="13" text-anchor="middle">34 Nodes · 51 Links</text>
<rect x="1054" y="48" width="106" height="30" rx="8" fill="#8f8cf5"/>
<text x="1107" y="68" fill="#ffffff" font-size="13" font-weight="600" text-anchor="middle">Refresh</text>
<line x1="415.4" y1="344.6" x2="408.0" y2="482.5" stroke="rgba(143,140,245,0.40)" stroke-width="1.9"/>
<line x1="415.4" y1="344.6" x2="545.9" y2="228.3" stroke="rgba(143,140,245,0.40)" stroke-width="1.9"/>
<line x1="415.4" y1="344.6" x2="262.3" y2="289.1" stroke="rgba(143,140,245,0.40)" stroke-width="1.9"/>
<line x1="415.4" y1="344.6" x2="275.3" y2="354.8" stroke="rgba(143,140,245,0.40)" stroke-width="1.9"/>
<line x1="415.4" y1="344.6" x2="461.2" y2="445.2" stroke="rgba(143,140,245,0.40)" stroke-width="1.9"/>
<line x1="415.4" y1="344.6" x2="371.9" y2="418.0" stroke="rgba(143,140,245,0.40)" stroke-width="1.9"/>
<line x1="408.0" y1="482.5" x2="218.3" y2="420.3" stroke="rgba(143,140,245,0.40)" stroke-width="1.3"/>
<line x1="408.0" y1="482.5" x2="562.1" y2="520.1" stroke="rgba(143,140,245,0.40)" stroke-width="1.3"/>
<line x1="408.0" y1="482.5" x2="317.4" y2="504.9" stroke="rgba(143,140,245,0.40)" stroke-width="1.3"/>
<line x1="408.0" y1="482.5" x2="616.1" y2="563.7" stroke="rgba(143,140,245,0.40)" stroke-width="1.3"/>
<line x1="275.3" y1="354.8" x2="218.3" y2="420.3" stroke="rgba(143,140,245,0.40)" stroke-width="1.3"/>
<line x1="275.3" y1="354.8" x2="262.3" y2="289.1" stroke="rgba(143,140,245,0.40)" stroke-width="1.9"/>
<line x1="262.3" y1="289.1" x2="161.6" y2="228.0" stroke="rgba(143,140,245,0.40)" stroke-width="1.3"/>
<line x1="545.9" y1="228.3" x2="666.0" y2="178.1" stroke="rgba(143,140,245,0.40)" stroke-width="1.3"/>
<line x1="545.9" y1="228.3" x2="588.6" y2="150.0" stroke="rgba(143,140,245,0.40)" stroke-width="1.3"/>
<line x1="461.6" y1="254.7" x2="490.9" y2="190.4" stroke="rgba(143,140,245,0.40)" stroke-width="1.3"/>
<line x1="461.6" y1="254.7" x2="415.4" y2="344.6" stroke="rgba(143,140,245,0.40)" stroke-width="1.9"/>
<line x1="490.9" y1="190.4" x2="545.9" y2="228.3" stroke="rgba(143,140,245,0.40)" stroke-width="1.3"/>
<line x1="371.9" y1="418.0" x2="317.4" y2="504.9" stroke="rgba(143,140,245,0.40)" stroke-width="1.3"/>
<line x1="562.1" y1="520.1" x2="717.5" y2="502.4" stroke="rgba(167,167,180,0.22)" stroke-width="0.9"/>
<line x1="275.3" y1="354.8" x2="305.5" y2="415.0" stroke="rgba(167,167,180,0.22)" stroke-width="0.9"/>
<line x1="408.0" y1="482.5" x2="305.5" y2="415.0" stroke="rgba(167,167,180,0.22)" stroke-width="0.9"/>
<line x1="346.3" y1="609.9" x2="206.2" y2="617.4" stroke="rgba(78,161,255,0.34)" stroke-width="0.9"/>
<line x1="346.3" y1="609.9" x2="300.7" y2="596.4" stroke="rgba(78,161,255,0.34)" stroke-width="0.9"/>
<line x1="346.3" y1="609.9" x2="438.3" y2="557.9" stroke="rgba(78,161,255,0.34)" stroke-width="0.9"/>
<line x1="346.3" y1="609.9" x2="236.5" y2="640.7" stroke="rgba(78,161,255,0.34)" stroke-width="0.9"/>
<line x1="346.3" y1="609.9" x2="458.0" y2="644.6" stroke="rgba(78,161,255,0.34)" stroke-width="0.9"/>
<line x1="346.3" y1="609.9" x2="479.3" y2="591.5" stroke="rgba(78,161,255,0.34)" stroke-width="0.9"/>
<line x1="206.2" y1="617.4" x2="236.5" y2="640.7" stroke="rgba(78,161,255,0.34)" stroke-width="0.9"/>
<line x1="300.7" y1="596.4" x2="236.5" y2="640.7" stroke="rgba(78,161,255,0.34)" stroke-width="0.9"/>
<line x1="300.7" y1="596.4" x2="206.2" y2="617.4" stroke="rgba(78,161,255,0.34)" stroke-width="0.9"/>
<line x1="458.0" y1="644.6" x2="438.3" y2="557.9" stroke="rgba(78,161,255,0.34)" stroke-width="0.9"/>
<line x1="458.0" y1="644.6" x2="300.7" y2="596.4" stroke="rgba(78,161,255,0.34)" stroke-width="0.9"/>
<line x1="458.0" y1="644.6" x2="479.3" y2="591.5" stroke="rgba(78,161,255,0.34)" stroke-width="0.9"/>
<line x1="479.3" y1="591.5" x2="438.3" y2="557.9" stroke="rgba(78,161,255,0.34)" stroke-width="0.9"/>
<line x1="783.3" y1="681.9" x2="727.0" y2="622.9" stroke="rgba(78,161,255,0.34)" stroke-width="0.9"/>
<line x1="783.3" y1="681.9" x2="632.4" y2="690.2" stroke="rgba(78,161,255,0.34)" stroke-width="0.9"/>
<line x1="727.0" y1="622.9" x2="783.3" y2="681.9" stroke="rgba(78,161,255,0.34)" stroke-width="0.9"/>
<line x1="632.4" y1="690.2" x2="458.0" y2="644.6" stroke="rgba(167,167,180,0.22)" stroke-width="0.9"/>
<line x1="727.0" y1="622.9" x2="616.1" y2="563.7" stroke="rgba(167,167,180,0.22)" stroke-width="0.9"/>
<line x1="233.1" y1="683.4" x2="346.3" y2="609.9" stroke="rgba(63,203,176,0.34)" stroke-width="0.9"/>
<line x1="905.0" y1="730.0" x2="783.3" y2="681.9" stroke="rgba(63,203,176,0.34)" stroke-width="0.9"/>
<line x1="316.8" y1="695.2" x2="346.3" y2="609.9" stroke="rgba(63,203,176,0.34)" stroke-width="0.9"/>
<line x1="476.9" y1="726.8" x2="458.0" y2="644.6" stroke="rgba(167,167,180,0.22)" stroke-width="0.9"/>
<line x1="218.3" y1="420.3" x2="60.0" y2="404.1" stroke="rgba(167,167,180,0.22)" stroke-width="0.9"/>
<line x1="415.4" y1="344.6" x2="396.1" y2="282.1" stroke="rgba(167,167,180,0.22)" stroke-width="1.5"/>
<line x1="317.4" y1="504.9" x2="300.7" y2="596.4" stroke="rgba(167,167,180,0.22)" stroke-width="0.9"/>
<line x1="562.1" y1="520.1" x2="479.3" y2="591.5" stroke="rgba(167,167,180,0.22)" stroke-width="0.9"/>
<line x1="408.0" y1="482.5" x2="346.3" y2="609.9" stroke="rgba(167,167,180,0.22)" stroke-width="0.9"/>
<line x1="461.2" y1="445.2" x2="438.3" y2="557.9" stroke="rgba(167,167,180,0.22)" stroke-width="0.9"/>
<line x1="616.1" y1="563.7" x2="727.0" y2="622.9" stroke="rgba(167,167,180,0.22)" stroke-width="0.9"/>
<circle cx="415.4" cy="344.6" r="28.0" fill="#8f8cf5" opacity="0.16" filter="url(#soft)"/>
<circle cx="408.0" cy="482.5" r="26.7" fill="#8f8cf5" opacity="0.16" filter="url(#soft)"/>
<circle cx="346.3" cy="609.9" r="29.3" fill="#4ea1ff" opacity="0.16" filter="url(#soft)"/>
<circle cx="300.7" cy="596.4" r="23.8" fill="#4ea1ff" opacity="0.16" filter="url(#soft)"/>
<circle cx="458.0" cy="644.6" r="25.3" fill="#4ea1ff" opacity="0.16" filter="url(#soft)"/>
<circle cx="415.4" cy="344.6" r="11.7" fill="#8f8cf5"/>
<circle cx="408.0" cy="482.5" r="11.1" fill="#8f8cf5"/>
<circle cx="545.9" cy="228.3" r="9.2" fill="#8f8cf5"/>
<circle cx="262.3" cy="289.1" r="8.4" fill="#8f8cf5"/>
<circle cx="275.3" cy="354.8" r="9.2" fill="#8f8cf5"/>
<circle cx="218.3" cy="420.3" r="8.4" fill="#8f8cf5"/>
<circle cx="562.1" cy="520.1" r="8.4" fill="#8f8cf5"/>
<circle cx="317.4" cy="504.9" r="8.4" fill="#8f8cf5"/>
<circle cx="616.1" cy="563.7" r="8.4" fill="#8f8cf5"/>
<circle cx="461.2" cy="445.2" r="7.4" fill="#8f8cf5"/>
<circle cx="461.6" cy="254.7" r="7.4" fill="#8f8cf5"/>
<circle cx="490.9" cy="190.4" r="7.4" fill="#8f8cf5"/>
<circle cx="371.9" cy="418.0" r="7.4" fill="#8f8cf5"/>
<circle cx="346.3" cy="609.9" r="12.2" fill="#4ea1ff"/>
<circle cx="206.2" cy="617.4" r="8.4" fill="#4ea1ff"/>
<circle cx="300.7" cy="596.4" r="9.9" fill="#4ea1ff"/>
<circle cx="479.3" cy="591.5" r="9.2" fill="#4ea1ff"/>
<circle cx="438.3" cy="557.9" r="9.2" fill="#4ea1ff"/>
<circle cx="236.5" cy="640.7" r="8.4" fill="#4ea1ff"/>
<circle cx="458.0" cy="644.6" r="10.5" fill="#4ea1ff"/>
<circle cx="783.3" cy="681.9" r="9.2" fill="#4ea1ff"/>
<circle cx="727.0" cy="622.9" r="9.2" fill="#4ea1ff"/>
<circle cx="632.4" cy="690.2" r="7.4" fill="#4ea1ff"/>
<circle cx="233.1" cy="683.4" r="6.2" fill="#3fcbb0"/>
<circle cx="905.0" cy="730.0" r="6.2" fill="#3fcbb0"/>
<circle cx="316.8" cy="695.2" r="6.2" fill="#3fcbb0"/>
<circle cx="476.9" cy="726.8" r="6.2" fill="#3fcbb0"/>
<circle cx="396.1" cy="282.1" r="6.2" fill="#8b8f9a"/>
<circle cx="60.0" cy="404.1" r="6.2" fill="#8b8f9a"/>
<circle cx="305.5" cy="415.0" r="7.4" fill="#e8bf69"/>
<circle cx="717.5" cy="502.4" r="6.2" fill="#e8bf69"/>
<circle cx="666.0" cy="178.1" r="6.2" fill="#6b7280"/>
<circle cx="161.6" cy="228.0" r="6.2" fill="#6b7280"/>
<circle cx="588.6" cy="150.0" r="6.2" fill="#6b7280"/>
<circle cx="415.4" cy="344.6" r="15.7" fill="none" stroke="#e8bf69" stroke-width="2.2"/>
<text x="346.3" y="635.1" fill="#ececf1" font-size="11.5" font-weight="500" text-anchor="middle">lib.rs</text>
<text x="415.4" y="369.3" fill="#ececf1" font-size="11.5" font-weight="700" text-anchor="middle">index.md</text>
<text x="408.0" y="506.6" fill="#ececf1" font-size="11.5" font-weight="500" text-anchor="middle">Architecture.md</text>
<text x="458.0" y="668.1" fill="#ececf1" font-size="11.5" font-weight="500" text-anchor="middle">ai.rs</text>
<text x="300.7" y="619.3" fill="rgba(236,236,241,0.82)" font-size="11.5" font-weight="500" text-anchor="middle">search.rs</text>
<text x="545.9" y="250.5" fill="rgba(236,236,241,0.82)" font-size="11.5" font-weight="500" text-anchor="middle">Roadmap.md</text>
<text x="275.3" y="377.0" fill="rgba(236,236,241,0.82)" font-size="11.5" font-weight="500" text-anchor="middle">Research.md</text>
<text x="479.3" y="613.7" fill="rgba(236,236,241,0.82)" font-size="11.5" font-weight="500" text-anchor="middle">consensus.rs</text>
<text x="438.3" y="580.1" fill="rgba(236,236,241,0.82)" font-size="11.5" font-weight="500" text-anchor="middle">exec.rs</text>
<text x="783.3" y="704.1" fill="rgba(236,236,241,0.82)" font-size="11.5" font-weight="500" text-anchor="middle">App.tsx</text>
<text x="727.0" y="645.1" fill="rgba(236,236,241,0.82)" font-size="11.5" font-weight="500" text-anchor="middle">GraphView.tsx</text>
<rect x="944" y="150" width="222" height="556" rx="9" fill="#23232b" stroke="#343440"/>
<text x="958" y="176" fill="#ececf1" font-size="12" font-weight="700" letter-spacing="1">CONTROLS</text>
<text x="1146" y="176" fill="#a7a7b4" font-size="12">▾</text>
<line x1="944" y1="190" x2="1166" y2="190" stroke="#343440"/>
<text x="958" y="212" fill="#a7a7b4" font-size="11.5" font-weight="600">Search</text>
<rect x="958" y="222" width="194" height="28" rx="6" fill="#17171c" stroke="#343440"/>
<text x="968" y="240" fill="#6b7280" font-size="11.5">Filter nodes…</text>
<text x="958" y="266" fill="#a7a7b4" font-size="11.5" font-weight="600">Color by</text>
<rect x="958.0" y="276" width="95.0" height="26" rx="6" fill="#8f8cf5" stroke="#8f8cf5"/>
<text x="1005.5" y="293" fill="#ffffff" font-size="11" font-weight="600" text-anchor="middle">Type</text>
<rect x="1057.0" y="276" width="95.0" height="26" rx="6" fill="#17171c" stroke="#343440"/>
<text x="1104.5" y="293" fill="#a7a7b4" font-size="11" font-weight="600" text-anchor="middle">Folder</text>
<text x="958" y="316" fill="#a7a7b4" font-size="11.5" font-weight="600">Scope</text>
<rect x="958.0" y="326" width="95.0" height="26" rx="6" fill="#8f8cf5" stroke="#8f8cf5"/>
<text x="1005.5" y="343" fill="#ffffff" font-size="11" font-weight="600" text-anchor="middle">Global</text>
<rect x="1057.0" y="326" width="95.0" height="26" rx="6" fill="#17171c" stroke="#343440"/>
<text x="1104.5" y="343" fill="#a7a7b4" font-size="11" font-weight="600" text-anchor="middle">Local</text>
<text x="958" y="368" fill="#a7a7b4" font-size="11.5" font-weight="600">Node size</text>
<rect x="958" y="382" width="194" height="4" rx="2" fill="#343440"/>
<rect x="958" y="382" width="87.3" height="4" rx="2" fill="#8f8cf5"/>
<circle cx="1045.3" cy="384" r="6" fill="#8f8cf5"/>
<text x="958" y="408" fill="#a7a7b4" font-size="11.5" font-weight="600">Link distance</text>
<rect x="958" y="422" width="194" height="4" rx="2" fill="#343440"/>
<rect x="958" y="422" width="67.9" height="4" rx="2" fill="#8f8cf5"/>
<circle cx="1025.9" cy="424" r="6" fill="#8f8cf5"/>
<text x="958" y="448" fill="#a7a7b4" font-size="11.5" font-weight="600">Repel force</text>
<rect x="958" y="462" width="194" height="4" rx="2" fill="#343440"/>
<rect x="958" y="462" width="58.2" height="4" rx="2" fill="#8f8cf5"/>
<circle cx="1016.2" cy="464" r="6" fill="#8f8cf5"/>
<text x="958" y="492" fill="#a7a7b4" font-size="11.5" font-weight="600">Labels</text>
<rect x="1122" y="480" width="30" height="16" rx="8" fill="#8f8cf5"/>
<circle cx="1144" cy="488" r="6" fill="#ffffff"/>
<rect x="958" y="510" width="194" height="28" rx="6" fill="#17171c" stroke="#343440"/>
<text x="1055.0" y="528" fill="#ececf1" font-size="12" text-anchor="middle">Fit</text>
<line x1="958" y1="544" x2="1152" y2="544" stroke="#343440"/>
<circle cx="964" cy="552" r="5" fill="#8f8cf5"/>
<text x="978" y="556" fill="#a7a7b4" font-size="11.5">Markdown</text>
<text x="1150" y="556" fill="#ececf1" font-size="11" text-anchor="end" opacity="0.7">13</text>
<circle cx="964" cy="574" r="5" fill="#4ea1ff"/>
<text x="978" y="578" fill="#a7a7b4" font-size="11.5">Code</text>
<text x="1150" y="578" fill="#ececf1" font-size="11" text-anchor="end" opacity="0.7">10</text>
<circle cx="964" cy="596" r="5" fill="#8b8f9a"/>
<text x="978" y="600" fill="#a7a7b4" font-size="11.5">Binary</text>
<text x="1150" y="600" fill="#ececf1" font-size="11" text-anchor="end" opacity="0.7">2</text>
<circle cx="964" cy="618" r="5" fill="#6b7280"/>
<text x="978" y="622" fill="#a7a7b4" font-size="11.5">Dangling</text>
<text x="1150" y="622" fill="#ececf1" font-size="11" text-anchor="end" opacity="0.7">3</text>
</svg>